# xmcd
#
# Track frame offsets:
# 150
# 8544
# 19017
# 30300
# 39396
# 49977
# 60045
# 69924
# 80073
# 90492
# 107929
# 118402
# 135569
# 151683
# 165098
# 179944
# 192306
# 200727
# 210336
# 225992
# 234656
# 244697
#
# Disc length: 3394 seconds
#
#
# Revision: 0
# Processed by: cddbd v1.5.1PL0 Copyright (c) Steve Scherf et al.
# Submitted via: FreeRIP 2.941 
#
DISCID=130d4016
DTITLE=V&V and G+G - Os Reis da Catira
DYEAR=2000
DGENRE=MPB
TTITLE0=Vieira+Vieirinha - Ladrao de Mulher
TTITLE1=Galvao+Galvaozinho - Recorte dos Velhos
TTITLE2=Vieira+Vieirinha - Jogo da Douradinha
TTITLE3=Galvao+Galvaozinho - Chapeu de Boiadeiro
TTITLE4=Vieira+Vieirinha - Rapaz Solteiro
TTITLE5=Galvao+Galvaozinho - Defeito dos Homens
TTITLE6=Vieira+Vieirinha - Coroa de Espinho
TTITLE7=Galvao+Galvaozinho - Trovao
TTITLE8=Vieira+Vieirinha - Aproveita a Mocidade
TTITLE9=Galvao+Galvaozinho - Time do Bonitao
TTITLE10=Chrystian+Ralf  - Ladrao de Mulher
TTITLE11=Vieira+Vieirinha - Sertao da ribeira
TTITLE12=Galvao+Galvaozinho - os Catireiros
TTITLE13=Vieira+Vieirinha - no Tempo em Que eu Nomorava
TTITLE14=Galvao+Galvaozinho - Golpe Doido
TTITLE15=Vieira+Vieirinha - o meu bem Falou
TTITLE16=Galvao+Galvaozinho - Agusto and Setembro
TTITLE17=Vieira+Vieirinha - Coracao de ouro
TTITLE18=Galvao+Galvaozinho - Meu Padecer
TTITLE19=Vieira+Vieirinha - Chao Petro
TTITLE20=Galvao+Galvaozinho - Tiro a Queima Bucha
TTITLE21=Vieira+Vieirinha - Recortado Paulista
EXTD=
EXTT0=
EXTT1=
EXTT2=
EXTT3=
EXTT4=
EXTT5=
EXTT6=
EXTT7=
EXTT8=
EXTT9=
EXTT10=
EXTT11=
EXTT12=
EXTT13=
EXTT14=
EXTT15=
EXTT16=
EXTT17=
EXTT18=
EXTT19=
EXTT20=
EXTT21=
PLAYORDER=
